<svg width="157" height="40" viewBox="0 0 157 40" fill="none" xmlns="http://www.w3.org/2000/svg">
<g clip-path="url(#clip0)">
<path d="M8.44487 39.125C8.14019 39.125 7.84282 39.1211 7.54058 39.1143C6.91436 39.1061 6.2896 39.0516 5.67144 38.9512C5.09503 38.8519 4.53664 38.6673 4.0147 38.4033C3.49754 38.1415 3.02585 37.7983 2.6177 37.3867C2.20364 36.98 1.85891 36.5082 1.59719 35.9902C1.33258 35.4688 1.14945 34.9099 1.05419 34.333C0.951311 33.7131 0.895651 33.0863 0.887687 32.458C0.881347 32.2471 0.873047 31.5449 0.873047 31.5449V8.44434C0.873047 8.44434 0.881887 7.75293 0.887737 7.5498C0.895362 6.92248 0.950699 6.29665 1.05327 5.67773C1.14871 5.09925 1.33197 4.53875 1.59673 4.01563C1.85749 3.49794 2.2003 3.02586 2.61187 2.61768C3.02297 2.20562 3.49617 1.8606 4.01421 1.59521C4.53495 1.33209 5.09228 1.14873 5.66753 1.05127C6.28772 0.949836 6.91465 0.894996 7.54304 0.88721L8.44536 0.875H147.65L148.563 0.8877C149.186 0.895099 149.807 0.94945 150.422 1.05029C151.003 1.14898 151.566 1.33362 152.093 1.59814C153.131 2.13299 153.975 2.97916 154.508 4.01807C154.768 4.53758 154.949 5.09351 155.043 5.66699C155.147 6.29099 155.205 6.92174 155.217 7.5542C155.22 7.8374 155.22 8.1416 155.22 8.44434C155.228 8.81934 155.228 9.17627 155.228 9.53613V30.4648C155.228 30.8281 155.228 31.1826 155.22 31.54C155.22 31.8652 155.22 32.1631 155.216 32.4697C155.204 33.0909 155.147 33.7104 155.045 34.3232C154.952 34.9043 154.769 35.4675 154.505 35.9932C154.241 36.5056 153.899 36.9733 153.489 37.3789C153.081 37.7927 152.608 38.1379 152.09 38.4014C151.565 38.6674 151.002 38.8527 150.422 38.9512C149.804 39.0522 149.179 39.1067 148.553 39.1143C148.26 39.1211 147.953 39.125 147.655 39.125L146.571 39.127L8.44487 39.125Z" fill="black"/>
<path d="M24.769 20.3007C24.7797 19.466 25.0014 18.6477 25.4135 17.9217C25.8255 17.1957 26.4145 16.5858 27.1256 16.1486C26.6738 15.5035 26.0779 14.9725 25.385 14.598C24.6922 14.2234 23.9216 14.0156 23.1344 13.991C21.4552 13.8147 19.8272 14.9958 18.9715 14.9958C18.0992 14.9958 16.7817 14.0085 15.363 14.0376C14.4453 14.0673 13.551 14.3341 12.7671 14.8122C11.9832 15.2903 11.3365 15.9632 10.8901 16.7655C8.95607 20.1139 10.3987 25.035 12.2513 27.7416C13.1782 29.0669 14.2615 30.5474 15.6789 30.4949C17.066 30.4374 17.584 29.6104 19.2583 29.6104C20.9171 29.6104 21.4031 30.4949 22.8493 30.4615C24.3377 30.4374 25.2754 29.1303 26.1698 27.7924C26.8358 26.848 27.3483 25.8043 27.6882 24.6999C26.8235 24.3341 26.0856 23.722 25.5665 22.9397C25.0474 22.1574 24.77 21.2396 24.769 20.3007V20.3007Z" fill="white"/>
<path d="M22.0376 12.2109C22.8491 11.2367 23.2489 9.98451 23.1521 8.72028C21.9123 8.8505 20.767 9.44306 19.9445 10.3799C19.5424 10.8376 19.2344 11.37 19.0381 11.9468C18.8419 12.5235 18.7612 13.1333 18.8008 13.7413C19.4209 13.7477 20.0344 13.6132 20.5951 13.3482C21.1558 13.0831 21.649 12.6942 22.0376 12.2109Z" fill="white"/>
<path d="M46.1494 30.4961V21.3564H46.0889L42.3457 30.4014H40.917L37.1641 21.3564H37.1045V30.4961H35.3486V18.0781H37.5781L41.5967 27.8799H41.665L45.6758 18.0781H47.9131V30.4961L46.1494 30.4961Z" fill="white"/>
<path d="M49.3965 27.9228C49.3965 26.3398 50.6094 25.3838 52.7617 25.2548L55.2402 25.1171V24.4287C55.2402 23.4218 54.5771 22.8535 53.4492 22.8535C53.0315 22.7979 52.6078 22.8967 52.2577 23.1313C51.9076 23.366 51.6552 23.7203 51.5479 24.1279H49.8096C49.8613 22.4921 51.3848 21.331 53.501 21.331C55.6612 21.331 57.0899 22.5097 57.0899 24.291V30.4961H55.3086V29.0068H55.2656C54.9803 29.5118 54.5646 29.9308 54.062 30.2201C53.5593 30.5094 52.9881 30.6584 52.4082 30.6514C52.0273 30.6886 51.6428 30.6458 51.2795 30.5257C50.9161 30.4056 50.5819 30.2108 50.2983 29.9538C50.0147 29.6969 49.7879 29.3835 49.6326 29.0337C49.4773 28.6839 49.3969 28.3055 49.3965 27.9228V27.9228ZM55.2402 27.1055V26.4082L53.0107 26.5459C51.9004 26.6152 51.2725 27.0967 51.2725 27.8711C51.2725 28.6631 51.9268 29.1797 52.9248 29.1797C53.2139 29.1993 53.5039 29.1608 53.7779 29.0666C54.0518 28.9723 54.3041 28.8242 54.5199 28.6308C54.7357 28.4375 54.9106 28.203 55.0344 27.941C55.1581 27.679 55.2281 27.3949 55.2403 27.1055H55.2402Z" fill="white"/>
<path d="M64.8936 24.5576C64.8123 24.0624 64.5478 23.6158 64.1524 23.3066C63.7571 22.9974 63.26 22.8482 62.7598 22.8887C61.3311 22.8887 60.3848 24.0849 60.3848 25.9697C60.3848 27.8974 61.3398 29.0586 62.7764 29.0586C63.2699 29.108 63.7638 28.9673 64.1572 28.6652C64.5506 28.363 64.814 27.9222 64.8936 27.4326H66.6836C66.5722 28.3688 66.0998 29.2246 65.3669 29.8177C64.6341 30.4109 63.6986 30.6946 62.7598 30.6084C60.1778 30.6084 58.4912 28.8437 58.4912 25.9697C58.4912 23.1553 60.1777 21.331 62.7422 21.331C63.688 21.2508 64.6277 21.5433 65.3609 22.1461C66.0941 22.7488 66.5628 23.6142 66.667 24.5576H64.8936Z" fill="white"/>
<path d="M78.7598 27.1396H74.0264L72.8896 30.4961H70.8848L75.3682 18.0781H77.4512L81.9346 30.4961H79.8955L78.7598 27.1396ZM74.5166 25.5908H78.2686L76.419 20.1435H76.3672L74.5166 25.5908Z" fill="white"/>
<path d="M91.6172 25.9697C91.6172 28.7832 90.1113 30.5908 87.8389 30.5908C87.2632 30.6209 86.6907 30.4883 86.1869 30.2082C85.6831 29.928 85.2684 29.5117 84.9902 29.0068H84.9472V33.4912H83.0889V21.4424H84.8877V22.9482H84.9219C85.2128 22.4458 85.6346 22.0316 86.1422 21.7497C86.6498 21.4679 87.2244 21.3289 87.8047 21.3476C90.1025 21.3477 91.6172 23.1641 91.6172 25.9697ZM89.707 25.9697C89.707 24.1367 88.7598 22.9316 87.3144 22.9316C85.8945 22.9316 84.9394 24.1621 84.9394 25.9697C84.9394 27.7939 85.8945 29.0156 87.3144 29.0156C88.7598 29.0156 89.707 27.8193 89.707 25.9697Z" fill="white"/>
<path d="M101.582 25.9697C101.582 28.7832 100.076 30.5908 97.8037 30.5908C97.2281 30.6209 96.6556 30.4883 96.1518 30.2082C95.648 29.928 95.2333 29.5117 94.9551 29.0068H94.9121V33.4912H93.0537V21.4424H94.8525V22.9482H94.8867C95.1777 22.4458 95.5994 22.0316 96.107 21.7497C96.6147 21.4679 97.1892 21.3289 97.7695 21.3476C100.067 21.3477 101.582 23.1641 101.582 25.9697ZM99.6719 25.9697C99.6719 24.1367 98.7246 22.9316 97.2793 22.9316C95.8594 22.9316 94.9043 24.1621 94.9043 25.9697C94.9043 27.7939 95.8594 29.0156 97.2793 29.0156C98.7246 29.0156 99.6719 27.8193 99.6719 25.9697H99.6719Z" fill="white"/>
<path d="M108.168 27.0361C108.306 28.2676 109.502 29.0761 111.137 29.0761C112.703 29.0761 113.83 28.2675 113.83 27.1572C113.83 26.1933 113.15 25.6162 111.541 25.2207L109.932 24.833C107.651 24.2822 106.593 23.2158 106.593 21.4853C106.593 19.3427 108.46 17.871 111.111 17.871C113.735 17.871 115.534 19.3427 115.595 21.4853H113.719C113.606 20.246 112.582 19.498 111.085 19.498C109.588 19.498 108.563 20.2548 108.563 21.3564C108.563 22.2343 109.218 22.7509 110.818 23.1464L112.187 23.4823C114.734 24.0849 115.793 25.1083 115.793 26.9247C115.793 29.248 113.942 30.703 110.999 30.703C108.245 30.703 106.386 29.2821 106.266 27.036L108.168 27.0361Z" fill="white"/>
<path d="M119.804 19.2998V21.4424H121.525V22.9141H119.804V27.9053C119.804 28.6807 120.148 29.042 120.905 29.042C121.11 29.0384 121.314 29.0241 121.517 28.999V30.4619C121.176 30.5255 120.83 30.5543 120.484 30.5478C118.651 30.5478 117.937 29.8593 117.937 28.1035V22.9141H116.62V21.4424H117.937V19.2998H119.804Z" fill="white"/>
<path d="M122.521 25.9697C122.521 23.1211 124.199 21.3311 126.815 21.3311C129.44 21.3311 131.11 23.1211 131.11 25.9697C131.11 28.8262 129.449 30.6084 126.815 30.6084C124.183 30.6084 122.521 28.8262 122.521 25.9697ZM129.217 25.9697C129.217 24.0156 128.321 22.8623 126.815 22.8623C125.31 22.8623 124.414 24.0244 124.414 25.9697C124.414 27.9316 125.31 29.0762 126.815 29.0762C128.321 29.0762 129.217 27.9316 129.217 25.9697H129.217Z" fill="white"/>
<path d="M132.644 21.4424H134.416V22.9834H134.459C134.579 22.5021 134.861 22.0768 135.257 21.7789C135.654 21.481 136.141 21.3287 136.637 21.3476C136.851 21.3469 137.064 21.3702 137.273 21.417V23.1553C137.003 23.0726 136.721 23.0347 136.438 23.043C136.168 23.032 135.899 23.0796 135.649 23.1825C135.4 23.2854 135.175 23.4411 134.991 23.639C134.807 23.8369 134.668 24.0723 134.584 24.3289C134.499 24.5856 134.471 24.8575 134.502 25.126V30.4961H132.644V21.4424Z" fill="white"/>
<path d="M145.841 27.8369C145.591 29.4805 143.99 30.6084 141.942 30.6084C139.309 30.6084 137.674 28.8437 137.674 26.0127C137.674 23.1729 139.317 21.3311 141.864 21.3311C144.369 21.3311 145.944 23.0518 145.944 25.7969V26.4336H139.55V26.5459C139.52 26.8791 139.562 27.2148 139.672 27.5306C139.782 27.8464 139.958 28.1352 140.189 28.3778C140.419 28.6203 140.699 28.8111 141.008 28.9374C141.318 29.0637 141.651 29.1226 141.985 29.1103C142.425 29.1515 142.865 29.0498 143.242 28.8203C143.619 28.5909 143.911 28.246 144.076 27.8369L145.841 27.8369ZM139.559 25.1348H144.085C144.102 24.8352 144.056 24.5354 143.952 24.2541C143.847 23.9729 143.685 23.7164 143.477 23.5006C143.268 23.2849 143.017 23.1145 142.74 23.0003C142.462 22.8861 142.164 22.8305 141.864 22.8369C141.562 22.8351 141.262 22.8933 140.982 23.008C140.702 23.1227 140.447 23.2918 140.233 23.5054C140.018 23.7191 139.848 23.973 139.733 24.2527C139.617 24.5323 139.558 24.8321 139.559 25.1348L139.559 25.1348Z" fill="white"/>
<path d="M37.8262 8.73101C38.2158 8.70305 38.6067 8.76191 38.9709 8.90335C39.335 9.04478 39.6632 9.26526 39.9317 9.54889C40.2003 9.83251 40.4026 10.1722 40.524 10.5435C40.6454 10.9148 40.6829 11.3083 40.6338 11.6959C40.6338 13.6021 39.6035 14.6979 37.8262 14.6979H35.6709V8.73101H37.8262ZM36.5976 13.854H37.7226C38.0011 13.8707 38.2797 13.825 38.5382 13.7204C38.7967 13.6158 39.0287 13.4548 39.2172 13.2493C39.4057 13.0437 39.546 12.7987 39.6278 12.5321C39.7097 12.2655 39.7311 11.9839 39.6904 11.708C39.7281 11.4332 39.7046 11.1534 39.6215 10.8887C39.5383 10.6241 39.3977 10.3811 39.2096 10.1771C39.0216 9.97322 38.7907 9.81341 38.5337 9.70917C38.2766 9.60494 37.9996 9.55885 37.7226 9.57422H36.5976V13.854Z" fill="white"/>
<path d="M41.6809 12.4443C41.6526 12.1484 41.6865 11.8499 41.7803 11.5678C41.8742 11.2857 42.0259 11.0264 42.2259 10.8064C42.4258 10.5864 42.6695 10.4107 42.9414 10.2904C43.2132 10.1701 43.5072 10.108 43.8045 10.108C44.1017 10.108 44.3957 10.1701 44.6676 10.2904C44.9394 10.4107 45.1831 10.5864 45.3831 10.8064C45.583 11.0264 45.7348 11.2857 45.8286 11.5678C45.9225 11.8499 45.9563 12.1484 45.928 12.4443C45.9569 12.7406 45.9234 13.0396 45.8298 13.3221C45.7362 13.6046 45.5846 13.8644 45.3846 14.0848C45.1846 14.3052 44.9407 14.4814 44.6686 14.6019C44.3964 14.7225 44.1021 14.7847 43.8045 14.7847C43.5069 14.7847 43.2125 14.7225 42.9404 14.6019C42.6683 14.4814 42.4244 14.3052 42.2244 14.0848C42.0244 13.8644 41.8727 13.6046 41.7791 13.3221C41.6855 13.0396 41.6521 12.7406 41.6809 12.4443V12.4443ZM45.0139 12.4443C45.0139 11.4683 44.5755 10.8975 43.8059 10.8975C43.0335 10.8975 42.5989 11.4683 42.5989 12.4444C42.5989 13.4282 43.0335 13.9946 43.8059 13.9946C44.5755 13.9946 45.014 13.4243 45.014 12.4443H45.0139Z" fill="white"/>
<path d="M51.5732 14.6978H50.6514L49.7207 11.3813H49.6504L48.7236 14.6978H47.8105L46.5693 10.1948H47.4707L48.2773 13.6308H48.3438L49.2695 10.1948H50.1221L51.0479 13.6308H51.1182L51.9209 10.1948H52.8096L51.5732 14.6978Z" fill="white"/>
<path d="M53.8535 10.1948H54.709V10.9102H54.7754C54.888 10.6532 55.0781 10.4379 55.3189 10.2941C55.5598 10.1503 55.8395 10.0852 56.1191 10.1079C56.3382 10.0914 56.5582 10.1245 56.7628 10.2046C56.9674 10.2847 57.1514 10.4098 57.3011 10.5706C57.4508 10.7315 57.5623 10.9239 57.6275 11.1337C57.6927 11.3436 57.7099 11.5654 57.6777 11.7827V14.6977H56.7891V12.0059C56.7891 11.2822 56.4746 10.9224 55.8174 10.9224C55.6686 10.9154 55.5201 10.9408 55.3821 10.9966C55.244 11.0524 55.1197 11.1375 55.0175 11.2458C54.9154 11.3542 54.8379 11.4834 54.7904 11.6245C54.7429 11.7657 54.7264 11.9154 54.7422 12.0635V14.6978H53.8535L53.8535 10.1948Z" fill="white"/>
<path d="M59.0938 8.43701H59.9824V14.6978H59.0938V8.43701Z" fill="white"/>
<path d="M61.2181 12.4443C61.1897 12.1484 61.2236 11.8499 61.3174 11.5678C61.4113 11.2857 61.563 11.0264 61.763 10.8064C61.9629 10.5864 62.2066 10.4107 62.4785 10.2904C62.7503 10.1701 63.0443 10.108 63.3416 10.108C63.6389 10.108 63.9328 10.1701 64.2047 10.2904C64.4765 10.4107 64.7203 10.5864 64.9202 10.8064C65.1201 11.0264 65.2719 11.2857 65.3657 11.5678C65.4596 11.8499 65.4934 12.1484 65.4651 12.4443C65.494 12.7406 65.4605 13.0396 65.3669 13.3221C65.2733 13.6046 65.1217 13.8644 64.9217 14.0848C64.7217 14.3052 64.4778 14.4814 64.2057 14.6019C63.9335 14.7225 63.6392 14.7847 63.3416 14.7847C63.044 14.7847 62.7496 14.7225 62.4775 14.6019C62.2054 14.4814 61.9615 14.3052 61.7615 14.0848C61.5615 13.8644 61.4098 13.6046 61.3162 13.3221C61.2227 13.0396 61.1892 12.7406 61.2181 12.4443V12.4443ZM64.5511 12.4443C64.5511 11.4683 64.1126 10.8975 63.3431 10.8975C62.5706 10.8975 62.1361 11.4683 62.1361 12.4444C62.1361 13.4282 62.5706 13.9946 63.3431 13.9946C64.1126 13.9946 64.5511 13.4243 64.5511 12.4443H64.5511Z" fill="white"/>
<path d="M66.4004 13.4243C66.4004 12.6138 67.0039 12.1465 68.0752 12.0801L69.2949 12.0098V11.6211C69.2949 11.1455 68.9805 10.877 68.373 10.877C67.877 10.877 67.5332 11.0591 67.4346 11.3775H66.5742C66.665 10.604 67.3926 10.1079 68.4141 10.1079C69.543 10.1079 70.1797 10.6699 70.1797 11.6211V14.6978H69.3242V14.065H69.2539C69.1112 14.292 68.9108 14.477 68.6732 14.6012C68.4355 14.7254 68.1692 14.7844 67.9014 14.772C67.7123 14.7916 67.5213 14.7715 67.3405 14.7128C67.1598 14.6541 66.9933 14.5581 66.8519 14.4312C66.7105 14.3042 66.5972 14.149 66.5195 13.9756C66.4417 13.8022 66.4011 13.6144 66.4004 13.4243V13.4243ZM69.2949 13.0396V12.6631L68.1953 12.7334C67.5752 12.7749 67.2939 12.9859 67.2939 13.3828C67.2939 13.7881 67.6455 14.0239 68.1289 14.0239C68.2706 14.0383 68.4137 14.024 68.5497 13.9819C68.6857 13.9398 68.8118 13.8708 68.9206 13.7789C69.0294 13.6871 69.1186 13.5743 69.1829 13.4473C69.2472 13.3203 69.2853 13.1816 69.2949 13.0396V13.0396Z" fill="white"/>
<path d="M71.3477 12.4444C71.3477 11.0215 72.0791 10.1201 73.2168 10.1201C73.4982 10.1072 73.7775 10.1746 74.022 10.3145C74.2666 10.4544 74.4662 10.661 74.5977 10.9101H74.6641V8.43701H75.5527V14.6978H74.7012V13.9863H74.6309C74.4893 14.2338 74.2826 14.4378 74.0334 14.5763C73.7841 14.7148 73.5017 14.7825 73.2168 14.772C72.0713 14.772 71.3477 13.8706 71.3477 12.4444ZM72.2657 12.4444C72.2657 13.3994 72.7159 13.9741 73.4688 13.9741C74.2178 13.9741 74.6807 13.3911 74.6807 12.4483C74.6807 11.5098 74.2129 10.9185 73.4688 10.9185C72.7207 10.9185 72.2656 11.4971 72.2656 12.4444H72.2657Z" fill="white"/>
<path d="M79.2297 12.4443C79.2015 12.1484 79.2353 11.8498 79.3292 11.5677C79.4231 11.2857 79.5748 11.0263 79.7748 10.8063C79.9748 10.5863 80.2185 10.4106 80.4904 10.2903C80.7622 10.17 81.0562 10.1079 81.3535 10.1079C81.6508 10.1079 81.9448 10.17 82.2167 10.2903C82.4886 10.4106 82.7323 10.5863 82.9323 10.8063C83.1322 11.0263 83.284 11.2857 83.3779 11.5677C83.4717 11.8498 83.5056 12.1484 83.4773 12.4443C83.5061 12.7406 83.4726 13.0396 83.379 13.3221C83.2854 13.6046 83.1337 13.8644 82.9337 14.0848C82.7337 14.3052 82.4898 14.4814 82.2176 14.6019C81.9455 14.7224 81.6512 14.7847 81.3535 14.7847C81.0559 14.7847 80.7616 14.7224 80.4894 14.6019C80.2173 14.4814 79.9734 14.3052 79.7734 14.0848C79.5734 13.8644 79.4217 13.6046 79.328 13.3221C79.2344 13.0396 79.2009 12.7406 79.2297 12.4443V12.4443ZM82.5627 12.4443C82.5627 11.4683 82.1243 10.8975 81.3547 10.8975C80.5823 10.8975 80.1477 11.4683 80.1477 12.4444C80.1477 13.4282 80.5823 13.9946 81.3547 13.9946C82.1242 13.9946 82.5628 13.4243 82.5628 12.4443H82.5627Z" fill="white"/>
<path d="M84.6689 10.1948H85.5244V10.9102H85.5908C85.7035 10.6532 85.8935 10.4379 86.1344 10.2941C86.3752 10.1503 86.655 10.0852 86.9346 10.1079C87.1537 10.0914 87.3737 10.1245 87.5783 10.2046C87.7829 10.2847 87.9668 10.4098 88.1165 10.5706C88.2662 10.7315 88.3778 10.9239 88.443 11.1337C88.5082 11.3436 88.5253 11.5654 88.4932 11.7827V14.6977H87.6045V12.0059C87.6045 11.2822 87.2901 10.9224 86.6328 10.9224C86.4841 10.9154 86.3356 10.9408 86.1975 10.9966C86.0594 11.0524 85.9351 11.1375 85.833 11.2458C85.7308 11.3542 85.6534 11.4834 85.6058 11.6245C85.5583 11.7657 85.5419 11.9154 85.5576 12.0635V14.6978H84.6689V10.1948Z" fill="white"/>
<path d="M93.5146 9.07373V10.2153H94.4902V10.9639H93.5146V13.2793C93.5146 13.751 93.709 13.9575 94.1514 13.9575C94.2646 13.9572 94.3778 13.9503 94.4902 13.937V14.6772C94.3307 14.7058 94.169 14.721 94.0068 14.7226C93.0186 14.7226 92.625 14.375 92.625 13.5068V10.9638H91.9102V10.2153H92.625V9.07373H93.5146Z" fill="white"/>
<path d="M95.7051 8.43701H96.5859V10.9185H96.6562C96.7744 10.6591 96.9696 10.4425 97.2153 10.2982C97.461 10.1539 97.7452 10.0888 98.0292 10.1118C98.2472 10.1 98.4651 10.1364 98.6674 10.2184C98.8697 10.3004 99.0513 10.4261 99.1995 10.5864C99.3476 10.7468 99.4585 10.9378 99.5243 11.146C99.5901 11.3541 99.6091 11.5742 99.58 11.7905V14.6978H98.6905V12.0098C98.6905 11.2905 98.3555 10.9263 97.7276 10.9263C97.5748 10.9137 97.4212 10.9347 97.2774 10.9878C97.1337 11.0408 97.0032 11.1247 96.8952 11.2334C96.7872 11.3421 96.7043 11.4732 96.6522 11.6173C96.6002 11.7614 96.5802 11.9152 96.5938 12.0679V14.6977H95.7051L95.7051 8.43701Z" fill="white"/>
<path d="M104.761 13.4819C104.641 13.8935 104.379 14.2495 104.022 14.4876C103.666 14.7258 103.237 14.8309 102.81 14.7847C102.514 14.7925 102.219 14.7357 101.946 14.6182C101.674 14.5006 101.43 14.3252 101.232 14.1041C101.034 13.8829 100.887 13.6214 100.8 13.3376C100.713 13.0537 100.69 12.7544 100.73 12.4605C100.691 12.1656 100.715 11.8656 100.801 11.581C100.888 11.2963 101.035 11.0335 101.231 10.8105C101.428 10.5874 101.671 10.4092 101.943 10.288C102.214 10.1668 102.509 10.1054 102.806 10.1079C104.059 10.1079 104.815 10.9639 104.815 12.3779V12.688H101.635V12.7378C101.621 12.9031 101.642 13.0694 101.696 13.2261C101.751 13.3829 101.837 13.5266 101.95 13.6481C102.063 13.7695 102.2 13.866 102.352 13.9314C102.504 13.9968 102.669 14.0297 102.835 14.0278C103.047 14.0533 103.263 14.0151 103.453 13.9178C103.644 13.8206 103.802 13.6689 103.906 13.4819L104.761 13.4819ZM101.635 12.0308H103.91C103.921 11.8796 103.9 11.7278 103.85 11.5851C103.799 11.4424 103.718 11.3119 103.614 11.2021C103.51 11.0922 103.383 11.0054 103.243 10.9472C103.103 10.8891 102.953 10.8608 102.801 10.8643C102.648 10.8623 102.495 10.8912 102.353 10.9491C102.21 11.0071 102.081 11.0929 101.972 11.2017C101.864 11.3104 101.778 11.4397 101.72 11.5821C101.662 11.7245 101.633 11.8771 101.635 12.0308H101.635Z" fill="white"/>
</g>
<defs>
<clipPath id="clip0">
<rect width="156.101" height="40" fill="white"/>
</clipPath>
</defs>
</svg>